<svg xmlns="http://www.w3.org/2000/svg" viewBox="0 0 64 64" fill="none">
  <defs>
    <linearGradient id="sky" x1="0" y1="0" x2="64" y2="64" gradientUnits="userSpaceOnUse">
      <stop offset="0" stop-color="#CDD4F3"/>
      <stop offset="0.55" stop-color="#E9DDF0"/>
      <stop offset="1" stop-color="#FADCC6"/>
    </linearGradient>
    <linearGradient id="night" x1="10" y1="8" x2="30" y2="54" gradientUnits="userSpaceOnUse">
      <stop offset="0" stop-color="#3B4390"/>
      <stop offset="1" stop-color="#7482CF"/>
    </linearGradient>
    <linearGradient id="day" x1="50" y1="8" x2="34" y2="54" gradientUnits="userSpaceOnUse">
      <stop offset="0" stop-color="#FFD27A"/>
      <stop offset="1" stop-color="#EE8A45"/>
    </linearGradient>
    <clipPath id="heart">
      <path d="M32 57C14 45 5 34 5 21.5 5 12.5 11.8 6 20 6c5.2 0 9.4 2.6 12 6.8C34.6 8.6 38.8 6 44 6c8.2 0 15 6.5 15 15.5C59 34 50 45 32 57Z"/>
    </clipPath>
    <clipPath id="day-half">
      <path d="M64 0H32V12.8C40 24 24 40 32 57V64H64Z"/>
    </clipPath>
    <mask id="crescent">
      <circle cx="19" cy="23" r="7.2" fill="#fff"/>
      <circle cx="22.6" cy="20.4" r="6.2" fill="#000"/>
    </mask>
  </defs>
  <rect width="64" height="64" rx="14" fill="url(#sky)"/>
  <g transform="translate(6.4 7.2) scale(0.8)">
    <g clip-path="url(#heart)">
      <path d="M0 0H32V12.8C40 24 24 40 32 57V64H0Z" fill="url(#night)"/>
      <path d="M64 0H32V12.8C40 24 24 40 32 57V64H64Z" fill="url(#day)"/>
      <rect width="64" height="64" fill="#EEF1FF" mask="url(#crescent)"/>
      <circle cx="11.5" cy="15" r="0.9" fill="#fff"/>
      <g clip-path="url(#day-half)" transform="translate(1 0)">
        <circle cx="44" cy="23" r="5.2" fill="#FFF5DD"/>
        <path d="M52 23H54.6M49.66 28.66 51.5 30.5M44 31V33.6M38.34 28.66 36.5 30.5M36 23H33.4M38.34 17.34 36.5 15.5M44 15V12.4M49.66 17.34 51.5 15.5" stroke="#FFF5DD" stroke-width="1.7" stroke-linecap="round"/>
      </g>
      <path d="M32 12.8C40 24 24 40 32 57" stroke="#fff" stroke-width="1.6" opacity="0.9"/>
      <ellipse cx="22" cy="14" rx="15" ry="7" fill="#fff" opacity="0.18" transform="rotate(-18 22 14)"/>
    </g>
    <path d="M32 57C14 45 5 34 5 21.5 5 12.5 11.8 6 20 6c5.2 0 9.4 2.6 12 6.8C34.6 8.6 38.8 6 44 6c8.2 0 15 6.5 15 15.5C59 34 50 45 32 57Z" stroke="#fff" stroke-opacity="0.6" stroke-width="1"/>
  </g>
</svg>
